<?xml version="1.0" encoding="utf-8"?>
<!-- Generator: Adobe Illustrator 23.0.5, SVG Export Plug-In . SVG Version: 6.00 Build 0)  -->
<svg version="1.1" xmlns="http://www.w3.org/2000/svg" xmlns:xlink="http://www.w3.org/1999/xlink" x="0px" y="0px"
	 viewBox="0 0 1984.25 2834.65" style="enable-background:new 0 0 1984.25 2834.65;" xml:space="preserve">
<style type="text/css">
	.st0{fill:#816FEA;}
	.st1{fill:#BAB3FD;stroke:#BAB3FD;stroke-miterlimit:10;}
	.st2{fill:#BAB3FD;}
	.st3{fill:#FFFFFF;}
	.st4{stroke:#000000;stroke-width:2;}
	.st5{fill:none;stroke:#000000;stroke-width:2;}
	.st6{fill:#816FEA;stroke:#816FEA;stroke-width:15;}
	.st7{fill:#FFFFFF;stroke:#FFFFFF;stroke-width:2;}
	.st8{fill:none;stroke:#000000;stroke-width:2;stroke-miterlimit:10;}
	.st9{stroke:#000000;stroke-width:2;stroke-miterlimit:10;}
	.st10{fill:none;}
	.st11{font-family:'YuGothic-Light';}
	.st12{font-size:217.1536px;}
	.st13{fill:#816FEA;stroke:#816FEA;stroke-width:2;stroke-miterlimit:10;}
	.st14{fill:#816FEA;stroke:#816FEA;stroke-width:1.5;stroke-miterlimit:10;}
	.st15{fill:none;stroke:#816FEA;stroke-width:2;stroke-miterlimit:10;}
</style>
<g id="Capa_2">
	<rect class="st0" width="1984.25" height="2834.65"/>
</g>
<g id="Capa_1">
	<g>
		<path class="st1" d="M1382.99,1773.1h488.4c12.98,0,25.3-5.68,33.72-15.55l0.15-0.18c13.94-16.33,14.17-40.31,0.56-56.91
			l-1.78-2.17c-8.42-10.27-21-16.22-34.28-16.22h-129.53c-13.33,0-25.95-6-34.37-16.33l-0.59-0.73
			c-13.15-16.13-13.3-39.24-0.37-55.55l0.41-0.52c8.41-10.61,21.21-16.8,34.75-16.8h29.65c13.4,0,26.08-6.06,34.5-16.49v0
			c13.64-16.9,13.03-41.19-1.43-57.39l-0.86-0.97c-8.41-9.42-20.44-14.8-33.07-14.8h-325.29v185.09l-5.13,12.93l-7.09,7.85
			l-8.82,4.96l-15.58,2.05h-51.86L1382.99,1773.1z"/>
		<path class="st2" d="M115.45,1166.81h291.3c12.4,0,19.76,6.81,25.94,16.1c9.76,14.66,14.55,32.25,14.59,50.05l0.27,131.34
			c0.04,17.74,4.92,46.86-8.83,68.42c-8.48,13.31-24.27,10.48-31.6-3.86H218.66c-11.19,0-21.87-4.69-29.52-12.95l-0.32-0.35
			c-14.73-15.92-14.49-41.09,0.55-56.7l0,0c7.53-7.81,17.82-12.26,28.59-12.36l22.8-0.21c12.84-0.12,24.85-6.4,32.39-16.92
			l3.35-4.68c11.22-15.66,10.1-37.14-2.69-51.52l-4.73-5.32c-7.65-8.61-18.55-13.53-29.98-13.56l-123.1-0.28
			c-12.68-0.03-24.61-6.07-32.24-16.33l-2.3-3.1c-11.03-14.84-10.78-35.56,0.6-50.11l1.66-2.13
			C91.4,1172.53,103.09,1166.81,115.45,1166.81z"/>
		<path class="st3" d="M1641.31,1320.78l-0.66,0.24c-31.82,11.56-67.38,5.36-93.41-16.29l-1.85-1.54
			c-26.03-21.66-38.6-55.52-33-88.91l0.11-0.66c5.67-33.85,29.12-62.02,61.38-73.75l0.66-0.24c31.82-11.56,67.38-5.36,93.41,16.29
			l1.85,1.54c26.03,21.66,38.6,55.52,33,88.91l-0.11,0.66C1697.01,1280.88,1673.56,1309.06,1641.31,1320.78z"/>
		<line class="st4" x1="447.55" y1="1095.02" x2="1443.53" y2="1095.02"/>
		<path class="st5" d="M1411.26,1715.38H479.82c-17.82,0-32.27-14.45-32.27-32.27V996.62c0-17.82,14.45-32.27,32.27-32.27h931.44
			c17.82,0,32.27,14.45,32.27,32.27v686.49C1443.53,1700.93,1429.08,1715.38,1411.26,1715.38z"/>
		<line class="st6" x1="1104.6" y1="1687.59" x2="1099.08" y2="1729.15"/>
		<path class="st3" d="M432.6,1294.62l-7.74,2.74c-50.42,17.84-106.48,8.19-148.04-25.47l-6.38-5.17
			c-43.23-35.02-64.16-90.67-54.73-145.5l0,0c9.43-54.83,47.76-100.29,100.21-118.85l7.74-2.74
			c50.42-17.84,106.48-8.19,148.04,25.47l6.38,5.17c43.23,35.02,64.16,90.67,54.73,145.5v0
			C523.38,1230.6,485.05,1276.06,432.6,1294.62z"/>
		<path class="st3" d="M1306.12,1862.75l-7.08,2.5c-46.1,16.31-97.36,7.49-135.35-23.29l-5.83-4.73
			c-39.53-32.02-58.66-82.9-50.04-133.03l0,0c8.63-50.13,43.67-91.69,91.62-108.66l7.08-2.5c46.1-16.31,97.36-7.49,135.35,23.29
			l5.83,4.73c39.53,32.02,58.66,82.9,50.04,133.03v0C1389.11,1804.22,1354.07,1845.78,1306.12,1862.75z"/>
		<path class="st3" d="M1641.31,1320.78l-0.66,0.24c-31.82,11.56-67.38,5.36-93.41-16.29l-1.85-1.54
			c-26.03-21.66-38.6-55.52-33-88.91l0.11-0.66c5.67-33.85,29.12-62.02,61.38-73.75l0.66-0.24c31.82-11.56,67.38-5.36,93.41,16.29
			l1.85,1.54c26.03,21.66,38.6,55.52,33,88.91l-0.11,0.66C1697.01,1280.88,1673.56,1309.06,1641.31,1320.78z"/>
		<path class="st3" d="M439.63,1590.11l-0.04,0.01c-30.47,11.07-64.53,5.13-89.45-15.6l-1.28-1.07
			c-24.93-20.74-36.96-53.16-31.61-85.15h0c5.43-32.41,27.89-59.4,58.78-70.62l0.04-0.01c30.47-11.07,64.53-5.13,89.45,15.6
			l1.28,1.07c24.93,20.74,36.96,53.16,31.61,85.15v0C492.97,1551.9,470.52,1578.89,439.63,1590.11z"/>
		<path class="st7" d="M1235.55,1059.06L1235.55,1059.06c-6.06,2.3-12.9,1.08-17.79-3.17l-0.64-0.56
			c-4.58-3.99-6.78-10.05-5.82-16.05l0.25-1.55c1-6.21,5.24-11.42,11.12-13.66l0,0c6.06-2.3,12.9-1.08,17.79,3.17l0.64,0.56
			c4.58,3.99,6.78,10.05,5.82,16.05l-0.25,1.55C1245.68,1051.61,1241.44,1056.82,1235.55,1059.06z"/>
		<path class="st5" d="M1225.61,1050.65l-0.8,0.3c-5.81,2.21-12.37,1.04-17.06-3.04l-1.27-1.11c-4.39-3.82-6.5-9.64-5.58-15.39
			l0.38-2.36c0.95-5.96,5.02-10.95,10.66-13.09l0.8-0.3c5.81-2.21,12.37-1.04,17.06,3.04l1.27,1.11c4.39,3.82,6.5,9.64,5.58,15.39
			l-0.38,2.36C1235.32,1043.51,1231.25,1048.51,1225.61,1050.65z"/>
		<path class="st7" d="M1302.61,1059.06L1302.61,1059.06c-6.06,2.3-12.9,1.08-17.79-3.17l-0.64-0.56
			c-4.58-3.99-6.78-10.05-5.82-16.05l0.25-1.55c1-6.21,5.24-11.42,11.12-13.66l0,0c6.06-2.3,12.9-1.08,17.79,3.17l0.64,0.56
			c4.58,3.99,6.78,10.05,5.82,16.05l-0.25,1.55C1312.73,1051.61,1308.49,1056.82,1302.61,1059.06z"/>
		<path class="st7" d="M1367.98,1059.06L1367.98,1059.06c-6.06,2.3-12.9,1.08-17.79-3.17l-0.64-0.56
			c-4.58-3.99-6.78-10.05-5.82-16.05l0.25-1.55c1-6.21,5.24-11.42,11.12-13.66l0,0c6.06-2.3,12.9-1.08,17.79,3.17l0.64,0.56
			c4.58,3.99,6.78,10.05,5.82,16.05l-0.25,1.55C1378.11,1051.61,1373.87,1056.82,1367.98,1059.06z"/>
		<path class="st5" d="M1293.57,1049.34l-0.8,0.3c-5.81,2.21-12.37,1.04-17.06-3.04l-1.27-1.11c-4.39-3.82-6.5-9.64-5.58-15.39
			l0.38-2.36c0.95-5.96,5.02-10.95,10.66-13.09l0.8-0.3c5.81-2.21,12.37-1.04,17.06,3.04l1.27,1.11c4.39,3.82,6.5,9.64,5.58,15.39
			l-0.38,2.36C1303.28,1042.2,1299.21,1047.19,1293.57,1049.34z"/>
		<path class="st5" d="M1359.89,1050.65l-0.8,0.3c-5.81,2.21-12.37,1.04-17.06-3.04l-1.27-1.11c-4.39-3.82-6.5-9.64-5.58-15.39
			l0.38-2.36c0.95-5.96,5.02-10.95,10.66-13.09l0.8-0.3c5.81-2.21,12.37-1.04,17.06,3.04l1.27,1.11c4.39,3.82,6.5,9.64,5.58,15.39
			l-0.38,2.36C1369.6,1043.51,1365.53,1048.51,1359.89,1050.65z"/>
		<line class="st8" x1="1586.21" y1="1421.96" x2="1586.21" y2="1385.55"/>
		<line class="st8" x1="1566.76" y1="1403.75" x2="1607.18" y2="1403.75"/>
		<line class="st8" x1="170.58" y1="1500.57" x2="210.88" y2="1500.57"/>
		<line class="st8" x1="190.73" y1="1520.78" x2="190.73" y2="1480.36"/>
		<circle class="st8" cx="272.94" cy="1389.68" r="13.78"/>
		<circle class="st8" cx="1542.55" cy="1520.88" r="18.37"/>
		<circle class="st9" cx="1631.72" cy="1499.26" r="9.19"/>
		<rect x="626.73" y="1294.26" class="st10" width="640.46" height="215.14"/>
		<text transform="matrix(1 0 0 1 650.999 1460.8199)" class="st11 st12">{ API }</text>
		<circle class="st5" cx="358.17" cy="1139.02" r="160.78"/>
		<circle class="st5" cx="1241.05" cy="1719.78" r="151.59"/>
		<line class="st13" x1="276.88" y1="1101.7" x2="432.45" y2="1101.7"/>
		<line class="st14" x1="389.83" y1="1064.46" x2="433.74" y2="1101.99"/>
		<line class="st14" x1="385.91" y1="1140.59" x2="432.23" y2="1101.99"/>
		<line class="st13" x1="434.2" y1="1175.71" x2="279.58" y2="1175.73"/>
		<line class="st14" x1="323.43" y1="1213.57" x2="277.72" y2="1174.9"/>
		<line class="st14" x1="323.95" y1="1137.43" x2="277.76" y2="1176.31"/>
		<line class="st15" x1="1579.05" y1="1204" x2="1549.25" y2="1231.58"/>
		<line class="st15" x1="1577.39" y1="1258.62" x2="1549.25" y2="1231.58"/>
		<line class="st15" x1="1617.66" y1="1201.24" x2="1592.29" y2="1264.13"/>
		<line class="st15" x1="1634.76" y1="1204.55" x2="1665.11" y2="1232.69"/>
		<line class="st15" x1="1635.87" y1="1258.06" x2="1665.11" y2="1232.69"/>
		<g>
			<g>
				<g>
					<path class="st0" d="M401.19,1457.96c4.43,0,8.85,0,13.28,0c1.36,0.67,1.93,1.77,2.04,3.28c0.16,2.17,0.52,4.33,0.76,6.49
						c0.06,0.52,0.25,0.73,0.75,0.93c2.52,0.99,5.02,2.03,7.51,3.1c0.48,0.2,0.78,0.22,1.2-0.11c1.86-1.5,3.74-2.97,5.63-4.44
						c1.39-1.08,2.75-1,4,0.24c2.65,2.64,5.29,5.28,7.92,7.93c1.24,1.25,1.31,2.61,0.22,4c-1.47,1.88-2.94,3.77-4.44,5.63
						c-0.31,0.38-0.32,0.66-0.13,1.11c1.08,2.51,2.14,5.04,3.14,7.59c0.2,0.49,0.41,0.69,0.93,0.74c2.17,0.24,4.32,0.61,6.49,0.77
						c1.51,0.11,2.61,0.67,3.28,2.04c0,4.43,0,8.85,0,13.28c-0.67,1.37-1.77,1.93-3.28,2.04c-2.17,0.16-4.33,0.53-6.5,0.77
						c-0.53,0.06-0.73,0.26-0.92,0.75c-1,2.52-2.04,5.02-3.11,7.51c-0.21,0.48-0.22,0.78,0.12,1.19c1.5,1.86,2.97,3.74,4.44,5.63
						c1.08,1.39,1,2.74-0.25,4c-2.61,2.63-5.23,5.25-7.86,7.87c-1.29,1.28-2.64,1.37-4.07,0.26c-1.86-1.45-3.73-2.9-5.57-4.38
						c-0.4-0.32-0.69-0.38-1.19-0.17c-2.51,1.09-5.05,2.13-7.59,3.14c-0.45,0.18-0.65,0.36-0.71,0.86
						c-0.25,2.35-0.57,4.69-0.83,7.03c-0.2,1.83-1.23,2.79-3.06,2.79c-3.71,0-7.41,0-11.12,0c-1.82,0-2.84-0.98-3.05-2.81
						c-0.26-2.35-0.58-4.68-0.83-7.03c-0.05-0.51-0.28-0.67-0.72-0.84c-2.54-1.01-5.08-2.06-7.59-3.14
						c-0.45-0.19-0.73-0.18-1.12,0.12c-1.84,1.48-3.7,2.93-5.56,4.39c-1.5,1.17-2.81,1.1-4.13-0.22c-2.62-2.62-5.24-5.24-7.85-7.88
						c-1.23-1.24-1.31-2.62-0.23-4c1.47-1.89,2.94-3.77,4.44-5.64c0.3-0.38,0.33-0.66,0.13-1.11c-1.08-2.52-2.13-5.05-3.15-7.59
						c-0.17-0.43-0.33-0.67-0.84-0.72c-2.38-0.25-4.74-0.57-7.12-0.85c-1.76-0.2-2.73-1.25-2.73-3.03c0-3.68,0-7.35,0-11.03
						c0-1.94,0.95-2.96,2.88-3.17c2.29-0.25,4.57-0.56,6.85-0.81c0.55-0.06,0.78-0.29,0.98-0.8c0.98-2.49,2-4.97,3.07-7.43
						c0.22-0.5,0.25-0.82-0.11-1.27c-1.5-1.86-2.97-3.75-4.44-5.64c-1.04-1.35-0.96-2.72,0.24-3.93c2.63-2.65,5.28-5.29,7.93-7.93
						c1.26-1.25,2.61-1.33,4-0.25c1.89,1.47,3.77,2.94,5.64,4.44c0.37,0.3,0.64,0.35,1.11,0.15c2.54-1.1,5.12-2.12,7.66-3.21
						c0.28-0.12,0.59-0.48,0.63-0.77c0.32-2.19,0.65-4.38,0.82-6.58C399.26,1459.73,399.82,1458.63,401.19,1457.96z M384.87,1504.02
						c0.13,12.7,10.45,22.93,23.04,22.85c12.7-0.08,23-10.47,22.89-23.09c-0.11-12.71-10.54-23.01-23.13-22.84
						C394.95,1481.11,384.74,1491.45,384.87,1504.02z"/>
				</g>
			</g>
		</g>
		<g>
			<g>
				<g>
					<path class="st0" d="M1229.1,1637.09c7.97,0,15.93,0,23.9,0c2.45,1.21,3.47,3.19,3.67,5.91c0.29,3.91,0.94,7.79,1.37,11.69
						c0.1,0.93,0.45,1.32,1.34,1.67c4.54,1.78,9.04,3.65,13.52,5.58c0.86,0.37,1.4,0.4,2.15-0.2c3.35-2.7,6.74-5.35,10.13-7.99
						c2.5-1.94,4.96-1.8,7.2,0.43c4.76,4.74,9.52,9.5,14.26,14.27c2.23,2.24,2.35,4.69,0.4,7.19c-2.65,3.39-5.29,6.78-7.99,10.13
						c-0.55,0.68-0.58,1.19-0.23,2c1.95,4.53,3.84,9.08,5.65,13.66c0.35,0.89,0.74,1.23,1.67,1.34c3.9,0.43,7.78,1.09,11.68,1.38
						c2.73,0.2,4.7,1.21,5.9,3.68c0,7.97,0,15.93,0,23.9c-1.2,2.47-3.19,3.47-5.91,3.67c-3.91,0.3-7.79,0.96-11.69,1.38
						c-0.95,0.1-1.31,0.47-1.66,1.35c-1.79,4.54-3.67,9.04-5.6,13.52c-0.37,0.86-0.4,1.4,0.21,2.15c2.7,3.35,5.35,6.74,8,10.14
						c1.95,2.5,1.79,4.93-0.45,7.19c-4.7,4.73-9.42,9.45-14.14,14.17c-2.32,2.31-4.75,2.46-7.32,0.47
						c-3.35-2.61-6.71-5.22-10.02-7.88c-0.71-0.57-1.24-0.69-2.14-0.3c-4.53,1.96-9.09,3.83-13.67,5.65
						c-0.81,0.32-1.18,0.65-1.27,1.54c-0.46,4.22-1.03,8.43-1.5,12.65c-0.37,3.29-2.22,5.03-5.51,5.03
						c-6.67,0.01-13.35,0.01-20.02,0c-3.27,0-5.12-1.76-5.49-5.06c-0.47-4.22-1.05-8.43-1.5-12.65c-0.1-0.91-0.51-1.2-1.3-1.52
						c-4.58-1.83-9.14-3.71-13.67-5.65c-0.81-0.35-1.32-0.33-2.01,0.22c-3.31,2.66-6.66,5.28-10.01,7.9
						c-2.69,2.1-5.06,1.98-7.44-0.39c-4.72-4.72-9.43-9.44-14.13-14.18c-2.22-2.23-2.36-4.71-0.42-7.2
						c2.64-3.4,5.29-6.79,7.98-10.15c0.54-0.68,0.59-1.18,0.24-2c-1.95-4.53-3.83-9.09-5.66-13.67c-0.31-0.78-0.59-1.2-1.52-1.3
						c-4.28-0.45-8.54-1.03-12.81-1.52c-3.16-0.36-4.91-2.25-4.91-5.46c-0.01-6.62-0.01-13.24,0-19.86c0-3.49,1.71-5.32,5.19-5.7
						c4.12-0.45,8.22-1.01,12.33-1.46c0.99-0.11,1.4-0.51,1.77-1.45c1.76-4.49,3.61-8.95,5.52-13.38c0.39-0.9,0.45-1.48-0.21-2.29
						c-2.71-3.34-5.35-6.74-7.99-10.14c-1.88-2.42-1.73-4.9,0.43-7.08c4.74-4.77,9.5-9.53,14.27-14.27c2.26-2.25,4.7-2.4,7.2-0.45
						c3.4,2.64,6.79,5.3,10.15,7.98c0.67,0.53,1.16,0.63,2,0.27c4.58-1.97,9.21-3.82,13.79-5.78c0.5-0.21,1.07-0.86,1.14-1.38
						c0.57-3.94,1.17-7.88,1.47-11.84C1225.63,1640.28,1226.63,1638.29,1229.1,1637.09z M1199.72,1719.99
						c0.24,22.85,18.82,41.27,41.47,41.12c22.86-0.15,41.4-18.85,41.2-41.56c-0.2-22.88-18.98-41.42-41.63-41.11
						C1217.87,1678.76,1199.48,1697.37,1199.72,1719.99z"/>
				</g>
			</g>
		</g>
	</g>
</g>
</svg>
